<svg width="800" height="222" viewBox="0 0 800 222" fill="none" xmlns="http://www.w3.org/2000/svg">
<path d="M59.8 180C54.4667 180 49.8 179.133 45.8 177.4C41.9333 175.667 38.6667 172.867 36 169C33.4667 165.133 31.6 160 30.4 153.6C29.3333 147.2 29 139.267 29.4 129.8L32 63L55.4 60L57.2 59.8L57.4 61.6C56.8667 62.5333 56.3333 63.4667 55.8 64.4C55.2667 65.3333 54.9333 66.9333 54.8 69.2L52.6 96.8L53.6 98.2L52 129.4C51.6 138.067 51.8667 144.8 52.8 149.6C53.8667 154.267 55.4 157.467 57.4 159.2C59.5333 160.933 62.0667 161.8 65 161.8C69.2667 161.8 73.0667 160.933 76.4 159.2C79.8667 157.467 83.0667 155.467 86 153.2L90.8 169.6C86.2667 172.933 81.4 175.533 76.2 177.4C71.1333 179.133 65.6667 180 59.8 180ZM11.8 85H83.4L83.2 102.8H11.4L11.8 85ZM154.2 180.2C147.533 180.2 141.333 179.133 135.6 177C130 174.867 125.067 171.8 120.8 167.8C116.667 163.667 113.467 158.6 111.2 152.6C108.933 146.6 107.8 139.8 107.8 132.2C107.8 124.467 108.933 117.533 111.2 111.4C113.467 105.267 116.533 100.067 120.4 95.8C124.4 91.5333 129.067 88.3333 134.4 86.2C139.733 83.9333 145.467 82.8 151.6 82.8C157.067 82.8 162.2 83.7333 167 85.6C171.8 87.4667 176 90.3333 179.6 94.2C183.333 97.9333 186.267 102.667 188.4 108.4C190.533 114 191.6 120.533 191.6 128C191.6 129.333 191.533 130.933 191.4 132.8C191.4 134.667 191.333 136.267 191.2 137.6H129.6C129.867 142 130.733 145.8 132.2 149C133.667 152.067 135.6 154.6 138 156.6C140.4 158.6 143.067 160.133 146 161.2C148.933 162.133 152 162.6 155.2 162.6C158 162.6 160.667 162.333 163.2 161.8C165.867 161.267 168.333 160.333 170.6 159C173 157.667 175.267 155.933 177.4 153.8L189 165C186.067 168.467 182.733 171.4 179 173.8C175.4 176.067 171.467 177.667 167.2 178.6C163.067 179.667 158.733 180.2 154.2 180.2ZM130 120.6H169.6C169.6 117.4 169.133 114.533 168.2 112C167.4 109.467 166.2 107.333 164.6 105.6C163 103.867 161 102.6 158.6 101.8C156.333 100.867 153.667 100.4 150.6 100.4C148.067 100.4 145.6 100.8 143.2 101.6C140.933 102.267 138.867 103.467 137 105.2C135.133 106.933 133.6 109.067 132.4 111.6C131.2 114.133 130.4 117.133 130 120.6ZM217.8 85H241.2L241 111L238.4 109.4C238.933 105.267 240.067 101.6 241.8 98.4C243.667 95.2 245.933 92.4 248.6 90C251.4 87.6 254.4 85.8 257.6 84.6C260.933 83.4 264.333 82.8 267.8 82.8C273 82.8 277.667 83.6667 281.8 85.4C286.067 87 290 89.6667 293.6 93.4L284 112.4L283.4 114L281.6 113.2C281.2 112.133 280.8 111.067 280.4 110C280 108.8 279 107.467 277.4 106C275.533 104.533 273.533 103.4 271.4 102.6C269.4 101.8 267.2 101.4 264.8 101.4C261.6 101.4 258.533 101.933 255.6 103C252.667 104.067 250.067 105.733 247.8 108C245.667 110.267 243.933 113.2 242.6 116.8C241.4 120.267 240.8 124.4 240.8 129.2V178H217.8V85ZM306 178V85H325V91.8C326.6 89.6667 328.267 87.9333 330 86.6C331.733 85.2667 333.533 84.3333 335.4 83.8C337.4 83.1333 339.333 82.8 341.2 82.8C343.467 82.8 345.6 83.2 347.6 84C349.6 84.6667 351.4 85.8667 353 87.6C354.733 89.2 356.067 91.3333 357 94C358.467 91.4667 360.133 89.4 362 87.8C363.867 86.0667 366 84.8 368.4 84C370.933 83.2 373.667 82.8 376.6 82.8C380.067 82.8 383 83.4 385.4 84.6C387.8 85.8 389.733 87.5333 391.2 89.8C392.8 92.0667 393.933 94.8667 394.6 98.2C395.267 101.533 395.6 105.267 395.6 109.4V178H376V114.2C376 110.2 375.8 107.133 375.4 105C375 102.733 374.4 101.2 373.6 100.4C372.8 99.4667 371.733 99 370.4 99C368.667 99 367 99.8667 365.4 101.6C363.8 103.2 362.467 105.467 361.4 108.4C360.467 111.2 360 114.533 360 118.4V178H341.6V114.8C341.6 108.4 341.133 104.133 340.2 102C339.267 99.8667 337.533 98.8 335 98.8C333.8 98.8 332.6 99.2 331.4 100C330.333 100.8 329.333 102 328.4 103.6C327.6 105.067 326.933 107 326.4 109.4C325.867 111.667 325.6 114.267 325.6 117.2V178H306ZM416.8 178V160.2H439.6V102.8H418V85H462.4V160.2H483.2V178H416.8ZM450 69.6C446.133 69.6 442.8 68.2667 440 65.6C437.2 62.9333 435.8 59.7333 435.8 56C435.8 52 437.133 48.7333 439.8 46.2C442.467 43.6667 445.867 42.4 450 42.4C453.733 42.4 457 43.7333 459.8 46.4C462.733 49.0667 464.2 52.2667 464.2 56C464.2 59.7333 462.733 62.9333 459.8 65.6C457 68.2667 453.733 69.6 450 69.6ZM511 178V85H533.6V97.8C535.867 94.8667 538.333 92.2667 541 90C543.667 87.7333 546.6 86 549.8 84.8C553.133 83.4667 556.667 82.8 560.4 82.8C565.867 82.8 570.867 84.1333 575.4 86.8C579.933 89.3333 583.6 93.4667 586.4 99.2C589.2 104.933 590.6 112.467 590.6 121.8V178H568V122.2C568 117 567.467 112.8 566.4 109.6C565.333 106.4 563.733 104.067 561.6 102.6C559.6 101 557.2 100.2 554.4 100.2C551.867 100.2 549.333 100.733 546.8 101.8C544.4 102.733 542.2 104.2 540.2 106.2C538.2 108.2 536.6 110.6 535.4 113.4C534.2 116.067 533.6 119.133 533.6 122.6V178H511ZM639.6 180.4C629.333 180.4 621.333 178 615.6 173.2C610 168.267 607.2 161.933 607.2 154.2C607.2 149.267 608.267 144.733 610.4 140.6C612.667 136.333 616 132.667 620.4 129.6C624.8 126.533 630.267 124.2 636.8 122.6C643.333 120.867 650.8 120 659.2 120C660.267 120 661.6 120 663.2 120C664.8 120 666.533 120.067 668.4 120.2C670.267 120.2 672 120.333 673.6 120.6L674.2 136.2C672.867 136.067 671.267 136 669.4 136C667.533 135.867 665.6 135.8 663.6 135.8C661.733 135.667 660.133 135.6 658.8 135.6C653.467 135.6 648.933 136 645.2 136.8C641.6 137.6 638.667 138.733 636.4 140.2C634.133 141.533 632.467 143.2 631.4 145.2C630.333 147.067 629.8 149.133 629.8 151.4C629.8 153.533 630.133 155.333 630.8 156.8C631.6 158.267 632.6 159.467 633.8 160.4C635.133 161.2 636.667 161.8 638.4 162.2C640.133 162.6 642 162.8 644 162.8C648 162.8 651.467 162.2 654.4 161C657.467 159.667 660 157.6 662 154.8C664.133 152 665.667 148.533 666.6 144.4C667.667 140.133 668.2 135.133 668.2 129.4C668.2 121.667 667.4 115.733 665.8 111.6C664.2 107.467 661.867 104.6 658.8 103C655.733 101.267 651.867 100.4 647.2 100.4C642.933 100.4 638.867 101.133 635 102.6C631.267 103.933 627.6 106.467 624 110.2L611.6 96.6C616.8 91.6667 622.6 88.1333 629 86C635.4 83.8667 641.8 82.8 648.2 82.8C654.067 82.8 659.533 83.4667 664.6 84.8C669.667 86.1333 674.067 88.4 677.8 91.6C681.667 94.6667 684.667 98.9333 686.8 104.4C689.067 109.733 690.2 116.4 690.2 124.4V178H666.8V168C665.067 170.267 663.2 172.2 661.2 173.8C659.2 175.4 657.067 176.667 654.8 177.6C652.533 178.533 650.133 179.2 647.6 179.6C645.067 180.133 642.4 180.4 639.6 180.4ZM712.6 178V160.2H738.8V61.6H713.8V43.8H761.6V160.2H787.6V178H712.6Z" fill="#F7F7F7"/>
</svg>
